REM DIRINDEX 1\4,1\2\5,1\2\6,1\3\7,1\3\8,1\3\9,1\3\10
REM DIRNAME folder01,folder02,folder03,folder04,folder05,folder06,folder07,folder08,folder09,folder10
TITLE ""
FILE "DISC2Track39.mp3" MP3
  TRACK 01 AUDIO
    TITLE "0:"
    INDEX 01 00:00:00
  TRACK 02 AUDIO
    TITLE "7:cjc107_2254"
    INDEX 01 00:00:01
  TRACK 03 AUDIO
    TITLE "0:"
    INDEX 01 00:04:01
  TRACK 04 AUDIO
    TITLE "8:cjc107_2255"
    INDEX 01 00:05:10
  TRACK 05 AUDIO
    TITLE "0:"
    INDEX 01 00:06:08
  TRACK 06 AUDIO
    TITLE "9:cjc107_2256"
    INDEX 01 00:06:20
  TRACK 07 AUDIO
    TITLE "0:"
    INDEX 01 00:08:50
  TRACK 08 AUDIO
    TITLE "8:cjc107_2257"
    INDEX 01 00:09:20
  TRACK 09 AUDIO
    TITLE "0:"
    INDEX 01 00:10:33
  TRACK 10 AUDIO
    TITLE "9:cjc107_2258"
    INDEX 01 00:10:35
  TRACK 11 AUDIO
    TITLE "0:"
    INDEX 01 00:11:74
  TRACK 12 AUDIO
    TITLE "8:cjc107_2259"
    INDEX 01 00:12:46
  TRACK 13 AUDIO
    TITLE "0:"
    INDEX 01 00:13:51
  TRACK 14 AUDIO
    TITLE "9:cjc107_2260"
    INDEX 01 00:13:57
  TRACK 15 AUDIO
    TITLE "0:"
    INDEX 01 00:14:54
  TRACK 16 AUDIO
    TITLE "8:cjc107_2261"
    INDEX 01 00:15:25
  TRACK 17 AUDIO
    TITLE "0:"
    INDEX 01 00:16:48
  TRACK 18 AUDIO
    TITLE "9:cjc107_2262"
    INDEX 01 00:16:57
  TRACK 19 AUDIO
    TITLE "0:"
    INDEX 01 00:18:48
  TRACK 20 AUDIO
    TITLE "8:cjc107_2263"
    INDEX 01 00:19:18
  TRACK 21 AUDIO
    TITLE "0:"
    INDEX 01 00:20:24
  TRACK 22 AUDIO
    TITLE "9:cjc107_2264"
    INDEX 01 00:20:28
  TRACK 23 AUDIO
    TITLE "0:"
    INDEX 01 00:22:66
  TRACK 24 AUDIO
    TITLE "8:cjc107_2265"
    INDEX 01 00:23:40
  TRACK 25 AUDIO
    TITLE "0:"
    INDEX 01 00:25:09
  TRACK 26 AUDIO
    TITLE "9:cjc107_2266"
    INDEX 01 00:25:17
  TRACK 27 AUDIO
    TITLE "0:"
    INDEX 01 00:26:38
  TRACK 28 AUDIO
    TITLE "8:cjc107_2267"
    INDEX 01 00:27:12
  TRACK 29 AUDIO
    TITLE "0:"
    INDEX 01 00:28:23
  TRACK 30 AUDIO
    TITLE "9:cjc107_2268"
    INDEX 01 00:28:29
  TRACK 31 AUDIO
    TITLE "0:"
    INDEX 01 00:29:56
  TRACK 32 AUDIO
    TITLE "8:cjc107_2269"
    INDEX 01 00:30:24
  TRACK 33 AUDIO
    TITLE "0:"
    INDEX 01 00:31:35
  TRACK 34 AUDIO
    TITLE "9:cjc107_2270"
    INDEX 01 00:31:39
  TRACK 35 AUDIO
    TITLE "0:"
    INDEX 01 00:33:48
  TRACK 36 AUDIO
    TITLE "8:cjc107_2271"
    INDEX 01 00:34:22
  TRACK 37 AUDIO
    TITLE "0:"
    INDEX 01 00:35:29
  TRACK 38 AUDIO
    TITLE "9:cjc107_2272"
    INDEX 01 00:35:31
  TRACK 39 AUDIO
    TITLE "0:"
    INDEX 01 00:36:56
  TRACK 40 AUDIO
    TITLE "8:cjc107_2273"
    INDEX 01 00:37:26
  TRACK 41 AUDIO
    TITLE "0:"
    INDEX 01 00:38:57
  TRACK 42 AUDIO
    TITLE "9:cjc107_2274"
    INDEX 01 00:38:61
  TRACK 43 AUDIO
    TITLE "0:"
    INDEX 01 00:39:62
  TRACK 44 AUDIO
    TITLE "8:cjc107_2275"
    INDEX 01 00:40:30
  TRACK 45 AUDIO
    TITLE "0:"
    INDEX 01 00:41:42
  TRACK 46 AUDIO
    TITLE "9:cjc107_2276"
    INDEX 01 00:41:44
  TRACK 47 AUDIO
    TITLE "0:"
    INDEX 01 00:44:38
  TRACK 48 AUDIO
    TITLE "8:cjc107_2277"
    INDEX 01 00:45:12
  TRACK 49 AUDIO
    TITLE "0:"
    INDEX 01 00:46:41
  TRACK 50 AUDIO
    TITLE "9:cjc107_2278"
    INDEX 01 00:46:43
  TRACK 51 AUDIO
    TITLE "0:"
    INDEX 01 00:49:08
  TRACK 52 AUDIO
    TITLE "8:cjc107_2279"
    INDEX 01 00:49:57
  TRACK 53 AUDIO
    TITLE "0:"
    INDEX 01 00:51:01
  TRACK 54 AUDIO
    TITLE "9:cjc107_2280"
    INDEX 01 00:51:03
  TRACK 55 AUDIO
    TITLE "0:"
    INDEX 01 00:53:62
  TRACK 56 AUDIO
    TITLE "10:cjc107_2281"
    INDEX 01 00:55:40
  TRACK 57 AUDIO
    TITLE "10:cjc107_2282"
    INDEX 01 00:58:13
  TRACK 58 AUDIO
    TITLE "10:cjc107_2283"
    INDEX 01 01:00:43
  TRACK 59 AUDIO
    TITLE "10:cjc107_2284"
    INDEX 01 01:08:27
  TRACK 60 AUDIO
    TITLE "10:cjc107_2285"
    INDEX 01 01:14:49
  TRACK 61 AUDIO
    TITLE "10:cjc107_2286"
    INDEX 01 01:21:04
  TRACK 62 AUDIO
    TITLE "10:cjc107_2287"
    INDEX 01 01:25:64
  TRACK 63 AUDIO
    TITLE "10:cjc107_2288"
    INDEX 01 01:30:50
  TRACK 64 AUDIO
    TITLE "0:"
    INDEX 01 01:32:62
